<svg width="126" height="138" viewBox="0 0 126 138" fill="none" xmlns="http://www.w3.org/2000/svg">
<path d="M123.16 33.6689C114.943 29.2016 106.795 24.6364 98.6299 20.0958L85.7782 12.9547L74.5085 19.191C86.9208 26.0386 99.336 32.8753 111.754 39.7012C112.474 39.9989 113.08 40.5025 113.49 41.1431C113.899 41.7838 114.092 42.5302 114.042 43.28C114.042 46.3669 114.042 49.4537 114.042 52.5405L113.94 52.4834C107.739 49.1248 88.5593 39.0899 82.4014 35.6661C76.2434 32.2422 69.8644 28.7043 63.5959 25.2234L51.6371 31.8428C68.1462 40.9486 96.6567 56.0949 114.076 65.6652C114.076 69.7521 114.09 73.8281 114.118 77.8932C113.916 77.7525 113.706 77.6219 113.489 77.5019C89.7844 64.4017 53.1002 44.6739 29.4294 31.4922L40.2228 25.5169L52.2239 18.8811L63.0771 12.8651L74.3639 6.61242L64.9311 1.3871C64.1571 0.963194 62.9408 0.368182 62.3794 0.6535C60.5337 1.55837 58.7308 2.52848 56.8936 3.53932L16.6284 25.7858L16.1355 26.0304L14.3322 27.0576L2.42452 33.6362C1.78067 33.9145 1.24328 34.3778 0.886643 34.9621C0.530005 35.5464 0.371936 36.2227 0.434374 36.897C0.496747 58.4453 0.510757 79.9909 0.476735 101.534C0.416389 102.251 0.589075 102.968 0.971365 103.587C1.35366 104.206 1.92658 104.696 2.61141 104.99C5.70741 106.621 8.78649 108.349 11.857 110.053V95.803C11.801 95.4413 11.7725 95.0761 11.7718 94.7105C11.8739 76.8904 11.8655 59.0702 11.874 41.25L17.3942 38.193C38.037 49.6058 65.2206 64.2794 89.5122 77.4611L89.6991 77.5588C97.0308 81.5533 104.099 85.4091 110.648 88.9715L125.107 96.8464C125.107 76.9448 125.164 57.0432 125.278 37.1416C125.338 36.4246 125.167 35.707 124.788 35.0859C124.41 34.4649 123.841 33.9703 123.16 33.6689Z" fill="url(#paint0_linear_1005_13724)"/>
<path d="M20.4001 50.7542V112.87C20.3984 113.629 20.5986 114.375 20.9804 115.033C21.3622 115.691 21.9122 116.236 22.5741 116.613C28.8437 120.198 47.1153 130.653 57.1617 136.377C58.001 136.862 59.3019 137.655 59.9062 137.355C63.2634 135.683 66.5534 133.653 70.1372 131.597C69.1972 130.953 68.7106 130.577 68.1734 130.268C55.9924 123.232 43.8139 116.195 31.6384 109.159V96.624L41.3658 102.215C53.8266 109.363 66.2905 116.499 78.7569 123.625C79.6801 124.151 81.0564 124.995 81.7194 124.678C85.362 122.898 88.8535 120.8 92.8738 118.544L31.6048 83.1531V70.735C36.9092 73.7601 42.1886 76.8188 47.4929 79.8523C65.7058 90.2814 83.9157 100.713 102.123 111.148C102.669 111.468 103.29 111.636 103.923 111.636C104.556 111.636 105.178 111.468 105.724 111.148C108.896 109.276 112.088 107.432 115.3 105.616L102.459 98.1701L20.4001 50.7542Z" fill="url(#paint1_linear_1005_13724)"/>
<defs>
<linearGradient id="paint0_linear_1005_13724" x1="0.434374" y1="55.3693" x2="125.235" y2="55.3693" gradientUnits="userSpaceOnUse">
<stop stop-color="#B000FD"/>
<stop offset="0.0001" stop-color="#B000FD"/>
<stop offset="0.98" stop-color="#30DAFF"/>
</linearGradient>
<linearGradient id="paint1_linear_1005_13724" x1="20.4102" y1="94.1299" x2="115.259" y2="94.1299" gradientUnits="userSpaceOnUse">
<stop stop-color="#B000FD"/>
<stop offset="0.0001" stop-color="#B000FD"/>
<stop offset="0.98" stop-color="#30DAFF"/>
</linearGradient>
</defs>
</svg>
