<svg width="1424" height="1424" viewBox="0 0 1424 1424" fill="none" xmlns="http://www.w3.org/2000/svg">
<g clip-path="url(#clip0_319_2)">
<path d="M705 302.8C845.446 302.8 959.3 236.583 959.3 154.9C959.3 73.2171 845.446 7 705 7C564.554 7 450.7 73.2171 450.7 154.9C450.7 236.583 564.554 302.8 705 302.8Z" fill="#E6007A"/>
<path d="M705 1417.2C845.446 1417.2 959.3 1350.98 959.3 1269.3C959.3 1187.62 845.446 1121.4 705 1121.4C564.554 1121.4 450.7 1187.62 450.7 1269.3C450.7 1350.98 564.554 1417.2 705 1417.2Z" fill="#E6007A"/>
<path d="M350.619 507.529C420.843 385.899 420.385 254.168 349.598 213.299C278.81 172.43 164.499 237.899 94.276 359.529C24.053 481.159 24.5104 612.89 95.2977 653.759C166.085 694.628 280.396 629.159 350.619 507.529Z" fill="#E6007A"/>
<path d="M1315.61 1064.66C1385.84 943.033 1385.42 811.324 1314.68 770.482C1243.94 729.641 1129.67 795.133 1059.44 916.762C989.22 1038.39 989.639 1170.1 1060.38 1210.94C1131.12 1251.78 1245.39 1186.29 1315.61 1064.66Z" fill="#E6007A"/>
<path d="M349.633 1210.91C420.421 1170.04 420.878 1038.31 350.655 916.678C280.432 795.048 166.121 729.578 95.3334 770.447C24.5461 811.316 24.0886 943.048 94.3116 1064.68C164.535 1186.31 278.846 1251.78 349.633 1210.91Z" fill="#E6007A"/>
<path d="M1314.74 653.791C1385.48 612.95 1385.9 481.241 1315.67 359.611C1245.45 237.981 1131.18 172.489 1060.44 213.331C989.7 254.172 989.281 385.881 1059.5 507.511C1129.73 629.141 1244 694.633 1314.74 653.791Z" fill="#E6007A"/>
</g>
<defs>
<clipPath id="clip0_319_2">
<rect width="1424" height="1424" fill="white"/>
</clipPath>
</defs>
</svg>
