<svg width="24" height="24" viewBox="0 0 24 24" fill="#fff" fill-opacity="0.5" xmlns="http://www.w3.org/2000/svg">
	<path fill-rule="evenodd" clip-rule="evenodd" d="M18.9107 5.79079C17.6219 5.18778 16.2438 4.74954 14.803 4.5C14.6261 4.8199 14.4194 5.25017 14.2769 5.59245C12.7453 5.36213 11.2279 5.36213 9.72449 5.59245C9.58199 5.25017 9.37058 4.8199 9.19206 4.5C7.74976 4.74954 6.3701 5.18939 5.08128 5.79399C2.4817 9.72228 1.777 13.553 2.12935 17.3293C3.85352 18.6169 5.52446 19.3991 7.16719 19.9109C7.57279 19.3527 7.93453 18.7593 8.24617 18.1339C7.65265 17.9084 7.0842 17.6301 6.54707 17.307C6.68957 17.2014 6.82895 17.091 6.96362 16.9775C10.2397 18.5098 13.7992 18.5098 17.0362 16.9775C17.1724 17.091 17.3118 17.2014 17.4527 17.307C16.914 17.6316 16.344 17.9099 15.7505 18.1355C16.0621 18.7593 16.4223 19.3543 16.8295 19.9125C18.4738 19.4007 20.1463 18.6185 21.8704 17.3293C22.2839 12.9516 21.1642 9.15606 18.9107 5.79079ZM15.3073 15.0114C14.3239 15.0114 13.5174 14.0932 13.5174 12.9752C13.5174 11.8572 14.3066 10.9375 15.3073 10.9375C16.308 10.9375 17.1145 11.8556 17.0973 12.9752C17.0973 14.0932 16.308 15.0114 15.3073 15.0114ZM6.90256 12.9752C6.90256 14.0932 7.70906 15.0114 8.69251 15.0114C9.69318 15.0114 10.4824 14.0932 10.4824 12.9752C10.4996 11.8556 9.69318 10.9375 8.69251 10.9375C7.69184 10.9375 6.90256 11.8572 6.90256 12.9752Z" />
</svg>
